<svg width="31" height="31" viewBox="0 0 31 31" fill="none" xmlns="http://www.w3.org/2000/svg">
<rect width="31" height="31" rx="7" fill="#161719"/>
<path d="M13 21.5C12.45 21.5 11.9792 21.3042 11.5875 20.9125C11.1958 20.5208 11 20.05 11 19.5V7.5C11 6.95 11.1958 6.47917 11.5875 6.0875C11.9792 5.69583 12.45 5.5 13 5.5H22C22.55 5.5 23.0208 5.69583 23.4125 6.0875C23.8042 6.47917 24 6.95 24 7.5V19.5C24 20.05 23.8042 20.5208 23.4125 20.9125C23.0208 21.3042 22.55 21.5 22 21.5H13ZM13 19.5H22V7.5H13V19.5ZM9 25.5C8.45 25.5 7.97917 25.3042 7.5875 24.9125C7.19583 24.5208 7 24.05 7 23.5V9.5H9V23.5H20V25.5H9Z" fill="#6594EE"/>
</svg>
