<svg width="41" height="41" viewBox="0 0 41 41" fill="none" xmlns="http://www.w3.org/2000/svg">
<path d="M20.5 30.75C21.0808 30.75 21.5677 30.5535 21.9606 30.1606C22.3535 29.7677 22.55 29.2808 22.55 28.7C22.55 28.1192 22.3535 27.6323 21.9606 27.2394C21.5677 26.8465 21.0808 26.65 20.5 26.65C19.9192 26.65 19.4323 26.8465 19.0394 27.2394C18.6465 27.6323 18.45 28.1192 18.45 28.7C18.45 29.2808 18.6465 29.7677 19.0394 30.1606C19.4323 30.5535 19.9192 30.75 20.5 30.75ZM18.45 22.55H22.55V10.25H18.45V22.55ZM20.5 41C17.6642 41 14.9992 40.4619 12.505 39.3856C10.0108 38.3094 7.84125 36.8487 5.99625 35.0037C4.15125 33.1587 2.69062 30.9892 1.61437 28.495C0.538125 26.0008 0 23.3358 0 20.5C0 17.6642 0.538125 14.9992 1.61437 12.505C2.69062 10.0108 4.15125 7.84125 5.99625 5.99625C7.84125 4.15125 10.0108 2.69062 12.505 1.61437C14.9992 0.538125 17.6642 0 20.5 0C23.3358 0 26.0008 0.538125 28.495 1.61437C30.9892 2.69062 33.1587 4.15125 35.0037 5.99625C36.8487 7.84125 38.3094 10.0108 39.3856 12.505C40.4619 14.9992 41 17.6642 41 20.5C41 23.3358 40.4619 26.0008 39.3856 28.495C38.3094 30.9892 36.8487 33.1587 35.0037 35.0037C33.1587 36.8487 30.9892 38.3094 28.495 39.3856C26.0008 40.4619 23.3358 41 20.5 41Z" fill="#6594EE"/>
</svg>
